<?xml version="1.0" standalone="no"?>
<!DOCTYPE svg PUBLIC "-//W3C//DTD SVG 20010904//EN"
 "http://www.w3.org/TR/2001/REC-SVG-20010904/DTD/svg10.dtd">
<svg version="1.0" xmlns="http://www.w3.org/2000/svg"
 width="795.000000pt" height="795.000000pt" viewBox="0 0 795.000000 795.000000"
 preserveAspectRatio="xMidYMid meet">
<metadata>
Created by potrace 1.11, written by Peter Selinger 2001-2013
</metadata>
<g transform="translate(0.000000,795.000000) scale(0.100000,-0.100000)"
fill="#000000" stroke="none">
<path d="M3894 7506 c-18 -8 -35 -19 -38 -25 -5 -7 -22 -9 -47 -5 -49 8 -113
-15 -189 -67 -74 -52 -89 -65 -139 -128 -97 -124 -108 -168 -111 -458 -2 -129
-2 -133 -23 -133 -12 -1 -681 -2 -1487 -4 -806 -1 -1476 -5 -1490 -9 -67 -17
-173 -82 -225 -139 -103 -111 -145 -225 -140 -383 l3 -100 187 -495 c103 -272
211 -558 240 -635 67 -179 399 -1061 430 -1140 13 -33 44 -115 68 -182 l46
-121 -1 -539 c0 -476 2 -543 16 -583 40 -108 98 -172 196 -219 45 -21 69 -25
130 -24 41 0 94 8 118 17 l43 16 13 -33 c8 -17 42 -108 76 -200 107 -287 171
-365 395 -482 61 -32 137 -72 170 -90 33 -18 103 -55 155 -82 52 -28 127 -68
165 -88 39 -21 122 -64 185 -97 63 -34 138 -73 165 -88 28 -15 95 -51 150 -80
181 -95 290 -153 320 -170 17 -10 98 -53 180 -96 83 -43 173 -91 200 -106 137
-76 192 -96 284 -104 125 -11 224 25 536 196 28 15 95 51 150 80 55 29 132 69
170 90 142 76 242 129 325 172 119 63 273 144 355 188 39 21 111 59 160 85 50
26 122 64 160 85 39 20 120 63 180 95 150 80 177 97 235 156 81 82 90 100 227
469 42 113 80 210 85 216 6 9 19 9 51 -1 92 -26 213 15 282 97 34 39 71 119
79 168 4 19 6 175 5 345 0 171 -1 355 -1 410 0 98 1 103 57 250 32 83 66 173
75 200 10 28 32 86 50 130 18 44 38 98 45 120 8 22 34 94 60 160 25 66 53 140
61 165 9 25 21 59 29 75 7 17 22 55 33 85 11 30 149 399 308 820 l288 765 0
115 c-1 124 -4 144 -34 215 -43 100 -124 193 -213 244 -108 62 -37 59 -1637
59 -803 -1 -1464 3 -1468 6 -4 4 -8 56 -9 114 -2 150 -11 272 -21 307 -21 71
-102 193 -160 240 -13 11 -34 28 -46 39 -11 10 -54 34 -94 54 -59 28 -80 34
-114 29 -32 -4 -47 -1 -70 16 -36 27 -138 34 -184 13z m96 -161 c0 -8 -4 -15
-9 -15 -13 0 -22 16 -14 24 11 11 23 6 23 -9z m-225 -25 c-3 -5 -11 -10 -16
-10 -6 0 -7 5 -4 10 3 6 11 10 16 10 6 0 7 -4 4 -10z m107 -75 c0 -5 -5 -11
-11 -13 -6 -2 -11 4 -11 13 0 9 5 15 11 13 6 -2 11 -8 11 -13z m228 0 c0 -8
-4 -15 -9 -15 -13 0 -22 16 -14 24 11 11 23 6 23 -9z m-450 -10 c0 -8 -4 -15
-10 -15 -5 0 -10 7 -10 15 0 8 5 15 10 15 6 0 10 -7 10 -15z m670 0 c0 -8 -4
-15 -10 -15 -5 0 -10 7 -10 15 0 8 5 15 10 15 6 0 10 -7 10 -15z m-560 -89 c0
-8 -4 -17 -9 -20 -10 -7 -23 19 -14 28 11 11 23 6 23 -8z m230 -7 c0 -5 -7 -9
-15 -9 -15 0 -20 12 -9 23 8 8 24 -1 24 -14z m230 14 c-1 -18 -18 -35 -24 -24
-4 6 -4 16 -1 21 7 12 25 13 25 3z m-345 -123 c-5 -8 -11 -8 -17 -2 -6 6 -7
16 -3 22 5 8 11 8 17 2 6 -6 7 -16 3 -22z m225 9 c0 -18 -2 -19 -15 -9 -15 12
-12 30 6 30 5 0 9 -10 9 -21z m225 -9 c-5 -8 -11 -8 -17 -2 -6 6 -7 16 -3 22
5 8 11 8 17 2 6 -6 7 -16 3 -22z m-677 9 c-2 -6 -8 -10 -13 -10 -5 0 -11 4
-13 10 -2 6 4 11 13 11 9 0 15 -5 13 -11z m-93 -99 c0 -22 -39 -19 -43 3 -3
15 1 18 20 15 12 -2 23 -10 23 -18z m208 -6 c-7 -18 -19 -18 -26 0 -7 18 1 26
18 19 8 -2 11 -11 8 -19z m222 -4 c-5 -8 -11 -8 -17 -2 -6 6 -7 16 -3 22 5 8
11 8 17 2 6 -6 7 -16 3 -22z m227 -2 c-15 -15 -26 -4 -18 18 5 13 9 15 18 6 9
-9 9 -15 0 -24z m225 16 c9 -24 -10 -36 -33 -19 -16 13 -17 16 -4 25 21 14 30
12 37 -6z m-334 -110 c-7 -18 -19 -18 -26 0 -7 18 1 26 18 19 8 -2 11 -11 8
-19z m-453 1 c0 -8 -7 -15 -15 -15 -8 0 -15 7 -15 15 0 8 7 15 15 15 8 0 15
-7 15 -15z m230 11 c0 -15 -14 -35 -21 -30 -15 9 -10 34 6 34 8 0 15 -2 15 -4z
m450 -11 c0 -8 -7 -15 -15 -15 -8 0 -15 7 -15 15 0 8 7 15 15 15 8 0 15 -7 15
-15z m-770 -95 c0 -4 -6 -13 -14 -19 -10 -9 -16 -8 -26 3 -6 9 -9 19 -6 25 7
10 46 3 46 -9z m880 -5 c0 -15 -19 -24 -37 -18 -19 7 -16 31 5 36 22 5 32 -1
32 -18z m-677 9 c3 -3 3 -12 0 -20 -4 -11 -9 -12 -19 -3 -8 6 -11 15 -8 20 6
10 18 12 27 3z m227 -10 c0 -9 -5 -14 -12 -12 -18 6 -21 28 -4 28 9 0 16 -7
16 -16z m228 4 c-6 -18 -28 -21 -28 -4 0 9 7 16 16 16 9 0 14 -5 12 -12z"/>
</g>
</svg>
